/* XPM */
static char * bottom_active_xpm[] = {
"28 8 2 1",
" 	c #fdfdfc",
".	c #7da078",
"                            ",
"                            ",
"                            ",
"............................",
"............................",
"                            ",
"                            ",
"                            "};
