/* XPM */
static char * bottom_inactive_xpm[] = {
"28 8 2 1",
" 	c #fdfdfc",
".	c #BFBFBF",
"                            ",
"                            ",
"                            ",
"............................",
"............................",
"                            ",
"                            ",
"                            "};
