/* XPM */
static char * close_active_xpm[] = {
"28 28 74 1",
" 	c #7DA078",
".	c #83A47E",
"+	c #EEF1EE",
"@	c #FFFFFF",
"#	c #FAFBFA",
"$	c #93AE90",
"%	c #C2CFC1",
"&	c #CAD5C8",
"*	c #9DB49A",
"=	c #FCFCFC",
"-	c #E4EAE4",
";	c #99B295",
">	c #FBFCFB",
",	c #E8ECE7",
"'	c #7FA17A",
")	c #C1CEBF",
"!	c #BFCDBD",
"~	c #E9EDE9",
"{	c #F9FAF9",
"]	c #E1E7E0",
"^	c #95AF91",
"/	c #C7D3C6",
"(	c #B5C5B3",
"_	c #8DAA89",
":	c #F6F7F5",
"<	c #E6EBE5",
"[	c #9EB59B",
"}	c #FDFDFC",
"|	c #D8E0D7",
"1	c #ACBFAA",
"2	c #F9FAF8",
"3	c #F0F3F0",
"4	c #85A581",
"5	c #D1DACF",
"6	c #FDFDFD",
"7	c #A1B79E",
"8	c #81A37D",
"9	c #ECF0EC",
"0	c #C5D1C3",
"a	c #9AB397",
"b	c #FEFEFE",
"c	c #E8EDE8",
"d	c #7EA179",
"e	c #BFCDBE",
"f	c #9BB398",
"g	c #80A27B",
"h	c #82A37E",
"i	c #EDF1ED",
"j	c #CBD6CA",
"k	c #D3DCD2",
"l	c #FDFEFD",
"m	c #E2E8E1",
"n	c #A6BBA4",
"o	c #AFC1AC",
"p	c #85A580",
"q	c #F1F4F1",
"r	c #F3F5F3",
"s	c #89A784",
"t	c #8FAB8B",
"u	c #F7F8F7",
"v	c #EBEFEB",
"w	c #A3B9A0",
"x	c #DCE3DB",
"y	c #E4E9E3",
"z	c #CCD6CA",
"A	c #BAC9B8",
"B	c #C4D1C3",
"C	c #C3D0C2",
"D	c #80A27C",
"E	c #ECEFEB",
"F	c #97B194",
"G	c #A0B79D",
"H	c #E7EBE6",
"I	c #EAEEEA",
"                            ",
"                            ",
"                            ",
"                            ",
"                            ",
"    .+@@@@#$     %@@@@@&    ",
"     *=@@@@-    ;>@@@@,'    ",
"      )@@@@@!  '~@@@@{$     ",
"       ]@@@@#^ /@@@@@(      ",
"       _:@@@@<[}@@@@|       ",
"        1@@@@@2@@@@34       ",
"         5@@@@@@@@67        ",
"         89@@@@@@@0         ",
"          ab@@@@@cd         ",
"          e@@@@@@{^         ",
"         f>@@@@@@@cg        ",
"        hi@@@@@@@@@j        ",
"        k@@@@lm@@@@bn       ",
"       o@@@@@&pq@@@@rs      ",
"      tu@@@@vg wb@@@@x      ",
"     dy@@@@=f   z@@@@@A     ",
"     B@@@@@C    DE@@@@#F    ",
"    G}@@@@Hd     f>@@@@ID   ",
"                            ",
"                            ",
"                            ",
"                            ",
"                            "};
