/* XPM */
static char * maximize_prelight_xpm[] = {
"28 28 2 1",
" 	c #99c48e",
".	c #FFFFFF",
"                            ",
"                            ",
"                            ",
"                            ",
"                            ",
"     ..................     ",
"     ..................     ",
"     ..................     ",
"     ..................     ",
"     ....          ....     ",
"     ....          ....     ",
"     ....          ....     ",
"     ....          ....     ",
"     ....          ....     ",
"     ....          ....     ",
"     ....          ....     ",
"     ....          ....     ",
"     ....          ....     ",
"     ....          ....     ",
"     ..................     ",
"     ..................     ",
"     ..................     ",
"     ..................     ",
"                            ",
"                            ",
"                            ",
"                            ",
"                            "};
