/* XPM */
static char * maximize_pressed_xpm[] = {
"28 28 2 1",
" 	c #c6debc",
".	c #FFFFFF",
"                            ",
"                            ",
"                            ",
"                            ",
"                            ",
"     ..................     ",
"     ..................     ",
"     ..................     ",
"     ..................     ",
"     ....          ....     ",
"     ....          ....     ",
"     ....          ....     ",
"     ....          ....     ",
"     ....          ....     ",
"     ....          ....     ",
"     ....          ....     ",
"     ....          ....     ",
"     ....          ....     ",
"     ....          ....     ",
"     ..................     ",
"     ..................     ",
"     ..................     ",
"     ..................     ",
"                            ",
"                            ",
"                            ",
"                            ",
"                            "};
