/* XPM */
static char * right_active_xpm[] = {
"8 28 2 1",
" 	c #fdfdfc",
".	c #7da078",
"   ..   ",
"   ..   ",
"   ..   ",
"   ..   ",
"   ..   ",
"   ..   ",
"   ..   ",
"   ..   ",
"   ..   ",
"   ..   ",
"   ..   ",
"   ..   ",
"   ..   ",
"   ..   ",
"   ..   ",
"   ..   ",
"   ..   ",
"   ..   ",
"   ..   ",
"   ..   ",
"   ..   ",
"   ..   ",
"   ..   ",
"   ..   ",
"   ..   ",
"   ..   ",
"   ..   ",
"   ..   "};
