/* XPM */
static char * stick_toggled_active_xpm[] = {
"28 28 16 1",
" 	c #7DA078",
".	c #B5C5B3",
"+	c #DBE2DA",
"@	c #F2F4F2",
"#	c #FDFEFD",
"$	c #ABBEA9",
"%	c #E4E9E3",
"&	c #FFFFFF",
"*	c #BBCAB9",
"=	c #F3F5F2",
"-	c #ACBFAA",
";	c #85A581",
">	c #C7D3C6",
",	c #95AF92",
"'	c #D4DDD3",
")	c #F8FAF8",
"                            ",
"                            ",
"                            ",
"                            ",
"                            ",
"          .+@##@+.          ",
"        $%&&&&&&&&%$        ",
"       *=&&&&&&&&&&=*       ",
"      $=&&&&&&&&&&&&=$      ",
"      %&&&&+-;;-+&&&&%      ",
"     .&&&&>      >&&&&.     ",
"     +&&&+ ,'))', +&&&+     ",
"     @&&&- '&&&&' -&&&@     ",
"     #&&&; )&&&&) ;&&&#     ",
"     #&&&; )&&&&) ;&&&#     ",
"     @&&&- '&&&&' -&&&@     ",
"     +&&&+ ,'))', +&&&+     ",
"     .&&&&>      >&&&&.     ",
"      %&&&&+-;;-+&&&&%      ",
"      $=&&&&&&&&&&&&=$      ",
"       *=&&&&&&&&&&=*       ",
"        $%&&&&&&&&%$        ",
"          .+@##@+.          ",
"                            ",
"                            ",
"                            ",
"                            ",
"                            "};
