/* XPM */
static char * top_left_inactive_xpm[] = {
"8 56 2 1",
" 	c #fdfdfc",
".	c #BFBFBF",
"   .....",
"   .....",
"   .....",
"   .....",
"   .....",
"   .....",
"   .....",
"   .....",
"   .....",
"   .....",
"   .....",
"   .....",
"   .....",
"   .....",
"   .....",
"   .....",
"   .....",
"   .....",
"   .....",
"   .....",
"   .....",
"   .....",
"   .....",
"   .....",
"   .....",
"   .....",
"   .....",
"   .....",
"   ..   ",
"   ..   ",
"   ..   ",
"   ..   ",
"   ..   ",
"   ..   ",
"   ..   ",
"   ..   ",
"   ..   ",
"   ..   ",
"   ..   ",
"   ..   ",
"   ..   ",
"   ..   ",
"   ..   ",
"   ..   ",
"   ..   ",
"   ..   ",
"   ..   ",
"   ..   ",
"   ..   ",
"   ..   ",
"   ..   ",
"   ..   ",
"   ..   ",
"   ..   ",
"   ..   ",
"   ..   "};
