/* XPM */
static char * bottom_inactive_xpm[] = {
"28 8 2 1",
" 	c #353535",
".	c #BFBFBF",
"                            ",
"                            ",
"                            ",
"............................",
"............................",
"                            ",
"                            ",
"                            "};
