/* XPM */
static char * bottom_active_xpm[] = {
"28 8 2 1",
" 	c #353535",
".	c #7DA078",
"                            ",
"                            ",
"                            ",
"............................",
"............................",
"                            ",
"                            ",
"                            "};
