/* XPM */
static char * close_pressed_xpm[] = {
"28 28 69 1",
" 	c #610000",
".	c #6D3838",
"+	c #EEEBEB",
"@	c #FFFFFF",
"#	c #D8D2D2",
"$	c #A69494",
"%	c #FEFEFE",
"&	c #9C8787",
"*	c #8C7070",
"=	c #FBFAFA",
"-	c #B0A1A1",
";	c #7C5656",
">	c #F7F6F6",
",	c #C1B6B6",
"'	c #F9F8F8",
")	c #836262",
"!	c #620D0D",
"~	c #E2DDDD",
"{	c #DFDADA",
"]	c #D2CBCB",
"^	c #E6E2E2",
"/	c #641616",
"(	c #BEB3B3",
"_	c #F3F1F1",
":	c #754949",
"<	c #6B3232",
"[	c #EBE8E8",
"}	c #D5CFCF",
"|	c #FDFCFC",
"1	c #957E7E",
"2	c #876868",
"3	c #FAF9F9",
"4	c #BAAEAE",
"5	c #AB9B9B",
"6	c #DAD5D5",
"7	c #D1CACA",
"8	c #F3F2F2",
"9	c #714040",
"0	c #ECE9E9",
"a	c #D4CDCD",
"b	c #F5F3F3",
"c	c #795151",
"d	c #B2A3A3",
"e	c #E2DEDE",
"f	c #8D7272",
"g	c #FBFBFB",
"h	c #A99999",
"i	c #F2F0F0",
"j	c #C4BBBB",
"k	c #703D3D",
"l	c #EFEDED",
"m	c #C9C0C0",
"n	c #998282",
"o	c #FDFDFD",
"p	c #9F8B8B",
"q	c #E9E6E6",
"r	c #662222",
"s	c #C2B8B8",
"t	c #F6F5F5",
"u	c #B8ACAC",
"v	c #866666",
"w	c #E4DFDF",
"x	c #E4E0E0",
"y	c #651C1C",
"z	c #937A7A",
"A	c #FCFCFC",
"B	c #B1A2A2",
"C	c #7E5A5A",
"D	c #C7BEBE",
"                            ",
"                            ",
"                            ",
"                            ",
"                            ",
"                            ",
"     .+@@@@#     $@@@@%&    ",
"      *=@@@@-   ;>@@@@,     ",
"       -@@@@') !~@@@@{!     ",
"        ]@@@@^/(@@@@_:      ",
"        <[@@@@}|@@@|1       ",
"         23@@@@@@@@4        ",
"          5@@@@@@@6         ",
"           7@@@@@89         ",
"          <0@@@@@%&         ",
"          a@@@@@@@bc        ",
"         d@@@@@@@@@e/       ",
"        fg@@@%hi@@@@j       ",
"       kl@@@@m no@@@%p      ",
"       #@@@@qr  s@@@@t;     ",
"      u@@@@3v   /w@@@@xy    ",
"     zA@@@@B     C>@@@@D    ",
"                            ",
"                            ",
"                            ",
"                            ",
"                            ",
"                            "};
