/* XPM */
static char * close_prelight_xpm[] = {
"28 28 72 1",
" 	c #9C0720",
".	c #A03039",
"+	c #F1EAEA",
"@	c #FFFFFF",
"#	c #FBF8F8",
"$	c #AB5E62",
"%	c #CEAEB0",
"&	c #D3B9BA",
"*	c #B17175",
"=	c #FCFBFB",
"-	c #E9DDDD",
";	c #AF6A6D",
">	c #ECE1E1",
",	c #9D1929",
"'	c #CDACAD",
")	c #CBA9AB",
"!	c #EDE3E3",
"~	c #FAF7F7",
"{	c #E6D9D9",
"]	c #FBF9F9",
"^	c #AC6165",
"/	c #D2B5B6",
"(	c #C39A9C",
"_	c #A64E54",
":	c #F7F3F3",
"<	c #EADFDF",
"[	c #B27477",
"}	c #FDFCFC",
"|	c #DFCCCD",
"1	c #BD8D8F",
"2	c #F3EDED",
"3	c #A13941",
"4	c #D9C2C3",
"5	c #B4797C",
"6	c #9F2834",
"7	c #EFE7E7",
"8	c #D0B2B3",
"9	c #B06C70",
"0	c #FEFDFD",
"a	c #ECE2E2",
"b	c #9D1225",
"c	c #CBAAAB",
"d	c #FAF8F8",
"e	c #B16F72",
"f	c #9E1F2D",
"g	c #9F2C37",
"h	c #F0E9E9",
"i	c #D5BBBC",
"j	c #DBC6C6",
"k	c #E7DADA",
"l	c #FEFEFE",
"m	c #B88385",
"n	c #BF9092",
"o	c #A1363F",
"p	c #F5F0F0",
"q	c #A4434A",
"r	c #A85459",
"s	c #F8F5F5",
"t	c #EEE6E6",
"u	c #B67D80",
"v	c #E2D2D3",
"w	c #E8DCDC",
"x	c #B06E71",
"y	c #C7A2A4",
"z	c #CFB1B2",
"A	c #CEB0B1",
"B	c #9E2430",
"C	c #EFE6E6",
"D	c #AE676B",
"E	c #B4777A",
"F	c #EBE0E0",
"G	c #EEE5E5",
"                            ",
"                            ",
"                            ",
"                            ",
"                            ",
"    .+@@@@#$     %@@@@@&    ",
"     *=@@@@-    ;=@@@@>,    ",
"      '@@@@@)  ,!@@@@~$     ",
"       {@@@@]^ /@@@@@(      ",
"       _:@@@@<[}@@@@|       ",
"        1@@@@@~@@@@23       ",
"         4@@@@@@@@}5        ",
"         67@@@@@@@8         ",
"          90@@@@@ab         ",
"          c@@@@@@d^         ",
"         e=@@@@@@@af        ",
"        gh@@@@@@@@@i        ",
"        j@@@@0k@@@@lm       ",
"       n@@@@@&o2@@@@pq      ",
"      rs@@@@tf u0@@@@v      ",
"     bw@@@@=x   i@@@@@y     ",
"     z@@@@@A    BC@@@@]D    ",
"    E}@@@@Fb     x=@@@@GB   ",
"                            ",
"                            ",
"                            ",
"                            ",
"                            "};
