/* XPM */
static char * close_inactive_xpm[] = {
"28 28 66 1",
" 	c #BFBFBF",
".	c #BCBCBC",
"+	c #545454",
"@	c #000000",
"#	c #777777",
"$	c #A3A3A3",
"%	c #121212",
"&	c #A9A9A9",
"*	c #B1B1B1",
"=	c #292929",
"-	c #9D9D9D",
";	c #B7B7B7",
">	c #3A3A3A",
",	c #909090",
"'	c #313131",
")	c #B4B4B4",
"!	c #6A6A6A",
"~	c #6E6E6E",
"{	c #7E7E7E",
"]	c #636363",
"^	c #BEBEBE",
"/	c #929292",
"(	c #474747",
"_	c #B9B9B9",
":	c #595959",
"<	c #7A7A7A",
"[	c #1D1D1D",
"}	c #ACACAC",
"|	c #B3B3B3",
"1	c #2F2F2F",
"2	c #959595",
"3	c #A0A0A0",
"4	c #747474",
"5	c #7F7F7F",
"6	c #454545",
"7	c #BBBBBB",
"8	c #575757",
"9	c #7C7C7C",
"0	c #414141",
"a	c #B8B8B8",
"b	c #9B9B9B",
"c	c #696969",
"d	c #B0B0B0",
"e	c #272727",
"f	c #0D0D0D",
"g	c #A1A1A1",
"h	c #484848",
"i	c #8C8C8C",
"j	c #515151",
"k	c #888888",
"l	c #AAAAAA",
"m	c #161616",
"n	c #A7A7A7",
"o	c #5D5D5D",
"p	c #8E8E8E",
"q	c #3D3D3D",
"r	c #969696",
"s	c #2D2D2D",
"t	c #676767",
"u	c #666666",
"v	c #ADADAD",
"w	c #202020",
"x	c #9C9C9C",
"y	c #B6B6B6",
"z	c #393939",
"A	c #8A8A8A",
"                            ",
"                            ",
"                            ",
"                            ",
"                            ",
"                            ",
"     .+@@@@#     $@@@@%&    ",
"      *=@@@@-   ;>@@@@,     ",
"       -@@@@')  !@@@@~      ",
"        {@@@@]^/@@@@(_      ",
"        .:@@@@<[@@@[}       ",
"         |1@@@@@@@@2        ",
"          3@@@@@@@4         ",
"           5@@@@@67         ",
"          .8@@@@@%&         ",
"          9@@@@@@@0a        ",
"         b@@@@@@@@@c^       ",
"        de@@@fgh@@@@i       ",
"       7j@@@@k lm@@@fn      ",
"       #@@@@o^  p@@@@q;     ",
"      r@@@@s|   ^t@@@@u^    ",
"     vw@@@@x     yz@@@@A    ",
"                            ",
"                            ",
"                            ",
"                            ",
"                            ",
"                            "};
