/* XPM */
static char * close_inactive_xpm[] = {
"28 28 66 1",
" 	c #BFBFBF",
".	c #BDBDBD",
"+	c #565656",
"@	c #000000",
"#	c #313131",
"$	c #B5B5B5",
"%	c #959595",
"&	c #8E8E8E",
"*	c #B0B0B0",
"=	c #252525",
"-	c #6A6A6A",
";	c #B2B2B2",
">	c #272727",
",	c #646464",
"'	c #BEBEBE",
")	c #969696",
"!	c #989898",
"~	c #616161",
"{	c #343434",
"]	c #707070",
"^	c #2D2D2D",
"/	c #909090",
"(	c #A0A0A0",
"_	c #B8B8B8",
":	c #414141",
"<	c #676767",
"[	c #AFAFAF",
"}	c #202020",
"|	c #7D7D7D",
"1	c #A7A7A7",
"2	c #070707",
"3	c #363636",
"4	c #515151",
"5	c #BCBCBC",
"6	c #868686",
"7	c #1D1D1D",
"8	c #AEAEAE",
"9	c #5B5B5B",
"0	c #939393",
"a	c #161616",
"b	c #636363",
"c	c #333333",
"d	c #B1B1B1",
"e	c #585858",
"f	c #8C8C8C",
"g	c #838383",
"h	c #1A1A1A",
"i	c #6E6E6E",
"j	c #121212",
"k	c #AAAAAA",
"l	c #A5A5A5",
"m	c #505050",
"n	c #494949",
"o	c #BABABA",
"p	c #B7B7B7",
"q	c #3D3D3D",
"r	c #5D5D5D",
"s	c #ACACAC",
"t	c #777777",
"u	c #6C6C6C",
"v	c #9C9C9C",
"w	c #949494",
"x	c #2F2F2F",
"y	c #B3B3B3",
"z	c #666666",
"A	c #5F5F5F",
"                            ",
"                            ",
"                            ",
"                            ",
"                            ",
"    .+@@@@#$     %@@@@@&    ",
"     *=@@@@-    ;>@@@@,'    ",
"      )@@@@@!  '~@@@@{$     ",
"       ]@@@@^$ /@@@@@(      ",
"       _:@@@@<[}@@@@|       ",
"        12@@@@3@@@@45       ",
"         6@@@@@@@@78        ",
"         .9@@@@@@@0         ",
"          ;a@@@@@b          ",
"          !@@@@@@c$         ",
"         d>@@@@@@@b'        ",
"        .e@@@@@@@@@f        ",
"        g@@@@hi@@@@jk       ",
"       l2@@@@&5m@@@@no      ",
"      pq@@@@r' sa@@@@t      ",
"      u@@@@=d   f@@@@@v     ",
"     0@@@@@w    'r@@@@xy    ",
"    8}@@@@z      d>@@@@A'   ",
"                            ",
"                            ",
"                            ",
"                            ",
"                            "};
