/* XPM */
static char * close_active_xpm[] = {
"28 28 76 1",
" 	c #7DA078",
".	c #7B9E76",
"+	c #364734",
"@	c #000000",
"#	c #1D271B",
"$	c #769872",
"%	c #607C5D",
"&	c #5C7658",
"*	c #73936E",
"=	c #141D13",
"-	c #445841",
";	c #749570",
">	c #161F15",
",	c #40533D",
"'	c #7D9F78",
")	c #617D5D",
"!	c #637F5F",
"~	c #3E513B",
"{	c #1F2A1D",
"]	c #475D44",
"^	c #1A2419",
"/	c #769771",
"(	c #5D7859",
"_	c #688664",
":	c #799A74",
"<	c #283526",
"[	c #42563F",
"}	c #72936E",
"|	c #111910",
"1	c #50684D",
"2	c #6C8B68",
"3	c #030502",
"4	c #202C1E",
"5	c #324230",
"6	c #7B9D76",
"7	c #567053",
"8	c #0F160E",
"9	c #71926D",
"0	c #7C9F77",
"a	c #394B37",
"b	c #5F7A5B",
"c	c #74956F",
"d	c #0B110A",
"e	c #3F523C",
"f	c #627F5E",
"g	c #1E291C",
"h	c #73946F",
"i	c #7C9E77",
"j	c #374935",
"k	c #5B7557",
"l	c #556D51",
"m	c #0D140C",
"n	c #465C43",
"o	c #080D07",
"p	c #6F8F6B",
"q	c #6B8A67",
"r	c #32422F",
"s	c #2D3C2B",
"t	c #7A9C75",
"u	c #789A73",
"v	c #253223",
"w	c #3B4D38",
"x	c #70906C",
"y	c #4C6349",
"z	c #455942",
"A	c #74946F",
"B	c #5A7557",
"C	c #658261",
"D	c #5F7B5B",
"E	c #607C5C",
"F	c #3A4C38",
"G	c #1B261A",
"H	c #759670",
"I	c #72926D",
"J	c #41543E",
"K	c #3C4F39",
"                            ",
"                            ",
"                            ",
"                            ",
"                            ",
"    .+@@@@#$     %@@@@@&    ",
"     *=@@@@-    ;>@@@@,'    ",
"      )@@@@@!  '~@@@@{$     ",
"       ]@@@@^/ (@@@@@_      ",
"       :<@@@@[}|@@@@1       ",
"        23@@@@4@@@@56       ",
"         7@@@@@@@@89        ",
"         0a@@@@@@@b         ",
"          cd@@@@@e          ",
"          f@@@@@@g/         ",
"         h>@@@@@@@e0        ",
"        ij@@@@@@@@@k        ",
"        l@@@@mn@@@@op       ",
"       q3@@@@&6r@@@@st      ",
"      uv@@@@w0 xd@@@@y      ",
"      z@@@@=A   B@@@@@C     ",
"     D@@@@@E    0F@@@@GH    ",
"    I|@@@@J      A>@@@@K0   ",
"                            ",
"                            ",
"                            ",
"                            ",
"                            "};
