/* XPM */
static char * close_active_xpm[] = {
"28 28 68 1",
" 	c #7DA078",
".	c #7B9D76",
"+	c #344532",
"@	c #000000",
"#	c #4C6349",
"$	c #6A8866",
"%	c #080D07",
"&	c #6E8D69",
"*	c #73946F",
"=	c #172116",
"-	c #668361",
";	c #779973",
">	c #232F21",
",	c #5D7859",
"'	c #1D271B",
")	c #769771",
"!	c #435840",
"~	c #465B43",
"{	c #51694D",
"]	c #3F523C",
"^	c #7D9F78",
"/	c #5E7A5A",
"(	c #2C3A2A",
"_	c #799B74",
":	c #7B9E76",
"<	c #384A35",
"[	c #4F664B",
"}	c #0F160E",
"|	c #70906C",
"1	c #759670",
"2	c #1B261A",
"3	c #607C5D",
"4	c #688664",
"5	c #4A6147",
"6	c #526A4E",
"7	c #2A3828",
"8	c #7A9C75",
"9	c #374834",
"0	c #50674C",
"a	c #283526",
"b	c #789A73",
"c	c #658261",
"d	c #435740",
"e	c #73936E",
"f	c #161F15",
"g	c #050905",
"h	c #698664",
"i	c #2D3B2A",
"j	c #5B7557",
"k	c #7A9D75",
"l	c #324230",
"m	c #587254",
"n	c #6F8F6B",
"o	c #0B110A",
"p	c #6D8C68",
"q	c #3B4D38",
"r	c #7C9F77",
"s	c #5C7758",
"t	c #253223",
"u	c #617D5D",
"v	c #1A2419",
"w	c #41553E",
"x	c #41543E",
"y	c #71916C",
"z	c #111910",
"A	c #779872",
"B	c #222E20",
"C	c #597355",
"                            ",
"                            ",
"                            ",
"                            ",
"                            ",
"                            ",
"     .+@@@@#     $@@@@%&    ",
"      *=@@@@-   ;>@@@@,     ",
"       -@@@@')  !@@@@~      ",
"        {@@@@]^/@@@@(_      ",
"        :<@@@@[}@@@}|       ",
"         12@@@@@@@@3        ",
"          4@@@@@@@5         ",
"           6@@@@@78         ",
"          :9@@@@@%&         ",
"          0@@@@@@@ab        ",
"         c@@@@@@@@@d^       ",
"        ef@@@ghi@@@@j       ",
"       kl@@@@m no@@@gp      ",
"       #@@@@qr  s@@@@t;     ",
"      u@@@@v1   ^w@@@@xr    ",
"     yz@@@@c     AB@@@@C    ",
"                            ",
"                            ",
"                            ",
"                            ",
"                            ",
"                            "};
