/* XPM */
static char * hide_active_xpm[] = {
"28 28 2 1",
" 	c #7DA078",
".	c #000000",
"                            ",
"                            ",
"                            ",
"                            ",
"                            ",
"                            ",
"                            ",
"                            ",
"                            ",
"                            ",
"                            ",
"                            ",
"                            ",
"                            ",
"                            ",
"                            ",
"                            ",
"                            ",
"                            ",
"     ..................     ",
"     ..................     ",
"     ..................     ",
"     ..................     ",
"                            ",
"                            ",
"                            ",
"                            ",
"                            "};
