/* XPM */
static char * menu_inactive_xpm[] = {
"28 28 2 1",
" 	c #BFBFBF",
".	c #000000",
"                            ",
"                            ",
"                            ",
"                            ",
"                            ",
"     ..................     ",
"     ..................     ",
"     ..................     ",
"     ..................     ",
"                            ",
"                            ",
"                            ",
"     ..................     ",
"     ..................     ",
"     ..................     ",
"     ..................     ",
"                            ",
"                            ",
"                            ",
"     ..................     ",
"     ..................     ",
"     ..................     ",
"     ..................     ",
"                            ",
"                            ",
"                            ",
"                            ",
"                            "};
