/* XPM */
static char * shade_toggled_active_xpm[] = {
"28 28 38 1",
" 	c #7DA078",
".	c #4F664C",
"+	c #000000",
"@	c #2B3929",
"#	c #6E8E6A",
"$	c #678563",
"%	c #1E291C",
"&	c #5B7658",
"*	c #7D9F78",
"=	c #4C6349",
"-	c #080D07",
";	c #597356",
">	c #7C9F77",
",	c #7B9D76",
"'	c #50674C",
")	c #587255",
"!	c #495F46",
"~	c #3D503A",
"{	c #759771",
"]	c #71926D",
"^	c #32422F",
"/	c #556E52",
"(	c #465B43",
"_	c #1D271B",
":	c #668362",
"<	c #5F7A5B",
"[	c #0F160E",
"}	c #526B4F",
"|	c #7B9E76",
"1	c #435740",
"2	c #31412F",
"3	c #40533D",
"4	c #7A9D75",
"5	c #3C4F3A",
"6	c #4A6046",
"7	c #7A9C75",
"8	c #3A4C37",
"9	c #465C43",
"                            ",
"                            ",
"                            ",
"                            ",
"                            ",
"                            ",
"                            ",
"                            ",
"                            ",
"                            ",
"     .++@#         $%++&    ",
"     *=++-;>     ,'+++)     ",
"      >!+++~{   ]^+++/      ",
"       >(+++_: <[+++}       ",
"        |1++++2++++'        ",
"         ,3+++++++=*        ",
"          45+++++6>         ",
"           78+++9>          ",
"                            ",
"                            ",
"                            ",
"                            ",
"                            ",
"                            ",
"                            ",
"                            ",
"                            ",
"                            "};
