/* XPM */
static char * shade_active_xpm[] = {
"28 28 4 1",
" 	c #7DA078",
".	c #5A7456",
"+	c #000000",
"@	c #40533D",
"                            ",
"                            ",
"                            ",
"                            ",
"                            ",
"                            ",
"                            ",
"                            ",
"                            ",
"            .+.             ",
"           .+++.            ",
"          .+++++.           ",
"         .+++++++.          ",
"        .++++@++++.         ",
"       .++++. .++++.        ",
"      .++++.   .++++.       ",
"     .++++.     .++++.      ",
"    .++++.       .++++.     ",
"   .++++@         .++++@    ",
"                            ",
"                            ",
"                            ",
"                            ",
"                            ",
"                            ",
"                            ",
"                            ",
"                            "};
