/* XPM */
static char * shade_pressed_xpm[] = {
"28 28 41 1",
" 	c #394827",
".	c #455138",
"+	c #DBDCDA",
"@	c #FFFFFF",
"#	c #E8E8E7",
"$	c #58614F",
"%	c #414E32",
"&	c #D8D9D7",
"*	c #E5E6E5",
"=	c #535D49",
"-	c #3E4C2F",
";	c #D4D5D3",
">	c #E2E3E2",
",	c #4D5842",
"'	c #3C4A2B",
")	c #D0D1CE",
"!	c #EEEFEE",
"~	c #DFE0DF",
"{	c #49553D",
"]	c #CCCDCA",
"^	c #FCFDFC",
"/	c #B6B8B4",
"(	c #A5A8A2",
"_	c #F9F9F8",
":	c #DCDDDB",
"<	c #C7C9C6",
"[	c #EEEEED",
"}	c #82877D",
"|	c #70766A",
"1	c #E5E5E4",
"2	c #C2C4C1",
"3	c #4F5A45",
"4	c #C0C2BF",
"5	c #FEFEFE",
"6	c #D4D6D3",
"7	c #BDBFBB",
"8	c #F8F8F8",
"9	c #A2A59F",
"0	c #8D9189",
"a	c #F2F2F2",
"b	c #D1D2CF",
"                            ",
"                            ",
"                            ",
"                            ",
"                            ",
"                            ",
"                            ",
"                            ",
"                            ",
"                            ",
"          .+@@@#$           ",
"         %&@@@@@*=          ",
"        -;@@@@@@@>,         ",
"       ')@@@@!@@@@~{        ",
"       ]@@@^/'(_@@@:.       ",
"      <@@@[}   |1@@@&%      ",
"     2@@@)3     %45@@6-     ",
"    7@@89         0a@@b'    ",
"                            ",
"                            ",
"                            ",
"                            ",
"                            ",
"                            ",
"                            ",
"                            ",
"                            ",
"                            "};
