/* XPM */
static char * shade_prelight_xpm[] = {
"28 28 42 1",
" 	c #43683D",
".	c #4D6E48",
"+	c #DCDFDC",
"@	c #FFFFFF",
"#	c #E8EAE8",
"$	c #5E785A",
"%	c #496C44",
"&	c #D8DCD8",
"*	c #E6E8E5",
"=	c #597555",
"-	c #476A42",
";	c #D5D9D4",
">	c #E3E5E3",
",	c #547250",
"'	c #45693F",
")	c #D0D5D0",
"!	c #EFF0EE",
"~	c #E0E3E0",
"{	c #51704C",
"]	c #CDD2CC",
"^	c #FCFDFC",
"/	c #B7BFB6",
"(	c #A7B1A6",
"_	c #F9F9F9",
":	c #DCE0DC",
"<	c #C8CEC7",
"[	c #EEF0EE",
"}	c #859583",
"|	c #748871",
"1	c #E5E8E5",
"2	c #D9DDD8",
"3	c #C3CAC3",
"4	c #567352",
"5	c #C2C8C1",
"6	c #FEFEFE",
"7	c #D5D9D5",
"8	c #BEC5BD",
"9	c #F8F9F8",
"0	c #A4AEA3",
"a	c #909E8E",
"b	c #F2F3F2",
"c	c #D1D6D1",
"                            ",
"                            ",
"                            ",
"                            ",
"                            ",
"                            ",
"                            ",
"                            ",
"                            ",
"                            ",
"          .+@@@#$           ",
"         %&@@@@@*=          ",
"        -;@@@@@@@>,         ",
"       ')@@@@!@@@@~{        ",
"       ]@@@^/'(_@@@:.       ",
"      <@@@[}   |1@@@2%      ",
"     3@@@)4     %56@@7-     ",
"    8@@90         ab@@c'    ",
"                            ",
"                            ",
"                            ",
"                            ",
"                            ",
"                            ",
"                            ",
"                            ",
"                            ",
"                            "};
