/* XPM */
static char * shade_inactive_xpm[] = {
"28 28 36 1",
" 	c #BFBFBF",
".	c #BDBDBD",
"+	c #6E6E6E",
"@	c #000000",
"#	c #5C5C5C",
"$	c #BABABA",
"%	c #BEBEBE",
"&	c #737373",
"*	c #606060",
"=	c #BBBBBB",
"-	c #777777",
";	c #646464",
">	c #BCBCBC",
",	c #7C7C7C",
"'	c #4F4F4F",
")	c #696969",
"!	c #808080",
"~	c #1D1D1D",
"{	c #939393",
"]	c #9D9D9D",
"^	c #313131",
"/	c #858585",
"(	c #505050",
"_	c #AEAEAE",
":	c #B4B4B4",
"<	c #616161",
"[	c #727272",
"}	c #898989",
"|	c #8A8A8A",
"1	c #121212",
"2	c #8D8D8D",
"3	c #333333",
"4	c #9F9F9F",
"5	c #A9A9A9",
"6	c #464646",
"7	c #7B7B7B",
"                            ",
"                            ",
"                            ",
"                            ",
"                            ",
"                            ",
"                            ",
"                            ",
"                            ",
"                            ",
"          .+@@@#$           ",
"         %&@@@@@*=          ",
"        %-@@@@@@@;>         ",
"        ,@@@@'@@@@).        ",
"       !@@@~{ ]^@@@+.       ",
"      /@@@(_   :<@@@[%      ",
"     }@@@,>     %|1@@-%     ",
"    2@@34         56@@7     ",
"                            ",
"                            ",
"                            ",
"                            ",
"                            ",
"                            ",
"                            ",
"                            ",
"                            ",
"                            "};
