/* XPM */
static char * shade_toggled_inactive_xpm[] = {
"28 28 36 1",
" 	c #BFBFBF",
".	c #7B7B7B",
"+	c #000000",
"@	c #464646",
"#	c #A9A9A9",
"$	c #9F9F9F",
"%	c #333333",
"&	c #8D8D8D",
"*	c #BEBEBE",
"=	c #777777",
"-	c #121212",
";	c #8A8A8A",
">	c #BCBCBC",
",	c #7C7C7C",
"'	c #898989",
")	c #727272",
"!	c #616161",
"~	c #B4B4B4",
"{	c #AEAEAE",
"]	c #505050",
"^	c #858585",
"/	c #BDBDBD",
"(	c #6E6E6E",
"_	c #313131",
":	c #9D9D9D",
"<	c #939393",
"[	c #1D1D1D",
"}	c #808080",
"|	c #696969",
"1	c #4F4F4F",
"2	c #646464",
"3	c #BBBBBB",
"4	c #606060",
"5	c #737373",
"6	c #BABABA",
"7	c #5C5C5C",
"                            ",
"                            ",
"                            ",
"                            ",
"                            ",
"                            ",
"                            ",
"                            ",
"                            ",
"                            ",
"     .++@#         $%++&    ",
"     *=++-;*     >,+++'     ",
"      *)+++!~   {]+++^      ",
"       /(+++_: <[+++}       ",
"        /|++++1++++,        ",
"         >2+++++++=*        ",
"          34+++++5*         ",
"           67+++(/          ",
"                            ",
"                            ",
"                            ",
"                            ",
"                            ",
"                            ",
"                            ",
"                            ",
"                            ",
"                            "};
