/* XPM */
static char * shade_active_xpm[] = {
"28 28 38 1",
" 	c #7DA078",
".	c #7C9F77",
"+	c #465C43",
"@	c #000000",
"#	c #3A4C37",
"$	c #7A9C75",
"%	c #4A6046",
"&	c #3C4F3A",
"*	c #7A9D75",
"=	c #7D9F78",
"-	c #4C6349",
";	c #40533D",
">	c #7B9D76",
",	c #50674C",
"'	c #31412F",
")	c #435740",
"!	c #7B9E76",
"~	c #526B4F",
"{	c #0F160E",
"]	c #5F7A5B",
"^	c #668362",
"/	c #1D271B",
"(	c #465B43",
"_	c #556E52",
":	c #32422F",
"<	c #71926D",
"[	c #759771",
"}	c #3D503A",
"|	c #495F46",
"1	c #587255",
"2	c #597356",
"3	c #080D07",
"4	c #5B7658",
"5	c #1E291C",
"6	c #678563",
"7	c #6E8E6A",
"8	c #2B3929",
"9	c #4F664C",
"                            ",
"                            ",
"                            ",
"                            ",
"                            ",
"                            ",
"                            ",
"                            ",
"                            ",
"                            ",
"          .+@@@#$           ",
"         .%@@@@@&*          ",
"        =-@@@@@@@;>         ",
"        ,@@@@'@@@@)!        ",
"       ~@@@{] ^/@@@(.       ",
"      _@@@:<   [}@@@|.      ",
"     1@@@,>     .23@@-=     ",
"    4@@56         78@@9     ",
"                            ",
"                            ",
"                            ",
"                            ",
"                            ",
"                            ",
"                            ",
"                            ",
"                            ",
"                            "};
