/* XPM */
static char * shade_toggled_pressed_xpm[] = {
"28 28 41 1",
" 	c #394827",
".	c #3C4A2B",
"+	c #D1D2CF",
"@	c #FFFFFF",
"#	c #F2F2F2",
"$	c #8D9189",
"%	c #A2A59F",
"&	c #F8F8F8",
"*	c #BDBFBB",
"=	c #3E4C2F",
"-	c #D4D6D3",
";	c #FEFEFE",
">	c #C0C2BF",
",	c #414E32",
"'	c #4F5A45",
")	c #D0D1CE",
"!	c #C2C4C1",
"~	c #D8D9D7",
"{	c #E5E5E4",
"]	c #70766A",
"^	c #82877D",
"/	c #EEEEED",
"(	c #C7C9C6",
"_	c #455138",
":	c #DCDDDB",
"<	c #F9F9F8",
"[	c #A5A8A2",
"}	c #B6B8B4",
"|	c #FCFDFC",
"1	c #CCCDCA",
"2	c #49553D",
"3	c #DFE0DF",
"4	c #EEEFEE",
"5	c #4D5842",
"6	c #E2E3E2",
"7	c #D4D5D3",
"8	c #535D49",
"9	c #E5E6E5",
"0	c #58614F",
"a	c #E8E8E7",
"b	c #DBDCDA",
"                            ",
"                            ",
"                            ",
"                            ",
"                            ",
"                            ",
"                            ",
"                            ",
"                            ",
"                            ",
"    .+@@#$         %&@@*    ",
"     =-@@;>,     ')@@@!     ",
"      ,~@@@{]   ^/@@@(      ",
"       _:@@@<[.}|@@@1       ",
"        23@@@@4@@@@).       ",
"         56@@@@@@@7=        ",
"          89@@@@@~,         ",
"           0a@@@b_          ",
"                            ",
"                            ",
"                            ",
"                            ",
"                            ",
"                            ",
"                            ",
"                            ",
"                            ",
"                            "};
