/* XPM */
static char * stick_toggled_pressed_xpm[] = {
"28 28 16 1",
" 	c #394827",
".	c #9EA09C",
"+	c #D1D2D1",
"@	c #EFEFEF",
"#	c #FDFDFD",
"$	c #8F928D",
"%	c #DCDCDC",
"&	c #FFFFFF",
"*	c #A6A8A4",
"=	c #D2D4D1",
"-	c #939790",
";	c #4F5A45",
">	c #B9BBB7",
",	c #6F7568",
"'	c #CACBC9",
")	c #F7F7F7",
"                            ",
"                            ",
"                            ",
"                            ",
"                            ",
"          .+@##@+.          ",
"        $%&&&&&&&&%$        ",
"       *@&&&&&&&&&&@*       ",
"      $@&&&&&&&&&&&&@$      ",
"      %&&&&=-;;-=&&&&%      ",
"     .&&&&>      >&&&&.     ",
"     +&&&= ,'))', =&&&+     ",
"     @&&&- '&&&&' -&&&@     ",
"     #&&&; )&&&&) ;&&&#     ",
"     #&&&; )&&&&) ;&&&#     ",
"     @&&&- '&&&&' -&&&@     ",
"     +&&&= ,'))', =&&&+     ",
"     .&&&&>      >&&&&.     ",
"      %&&&&=-;;-=&&&&%      ",
"      $@&&&&&&&&&&&&@$      ",
"       *@&&&&&&&&&&@*       ",
"        $%&&&&&&&&%$        ",
"          .+@##@+.          ",
"                            ",
"                            ",
"                            ",
"                            ",
"                            "};
