/* XPM */
static char * top_right_active_xpm[] = {
"8 56 2 1",
" 	c #7DA078",
".	c #353535",
"     ...",
"     ...",
"     ...",
"     ...",
"     ...",
"     ...",
"     ...",
"     ...",
"     ...",
"     ...",
"     ...",
"     ...",
"     ...",
"     ...",
"     ...",
"     ...",
"     ...",
"     ...",
"     ...",
"     ...",
"     ...",
"     ...",
"     ...",
"     ...",
"     ...",
"     ...",
"     ...",
"     ...",
"...  ...",
"...  ...",
"...  ...",
"...  ...",
"...  ...",
"...  ...",
"...  ...",
"...  ...",
"...  ...",
"...  ...",
"...  ...",
"...  ...",
"...  ...",
"...  ...",
"...  ...",
"...  ...",
"...  ...",
"...  ...",
"...  ...",
"...  ...",
"...  ...",
"...  ...",
"...  ...",
"...  ...",
"...  ...",
"...  ...",
"...  ...",
"...  ..."};
