/* XPM */
static char * close_active_xpm[] = {
"28 28 73 1",
" 	c #484848",
".	c #555555",
"+	c #EBEBEB",
"@	c #FFFFFF",
"#	c #F9F9F9",
"$	c #727272",
"%	c #B5B5B5",
"&	c #BEBEBE",
"*	c #818181",
"=	c #FBFBFB",
"-	c #DFDFDF",
";	c #7B7B7B",
">	c #E3E3E3",
",	c #4C4C4C",
"'	c #B3B3B3",
")	c #B0B0B0",
"!	c #E5E5E5",
"~	c #F8F8F8",
"{	c #DBDBDB",
"]	c #FAFAFA",
"^	c #747474",
"/	c #BBBBBB",
"(	c #A3A3A3",
"_	c #676767",
":	c #F4F4F4",
"<	c #E1E1E1",
"[	c #838383",
"}	c #FCFCFC",
"|	c #D0D0D0",
"1	c #979797",
"2	c #F7F7F7",
"3	c #EEEEEE",
"4	c #5A5A5A",
"5	c #C7C7C7",
"6	c #FDFDFD",
"7	c #878787",
"8	c #515151",
"9	c #E9E9E9",
"0	c #B8B8B8",
"a	c #7D7D7D",
"b	c #E4E4E4",
"c	c #4A4A4A",
"d	c #B1B1B1",
"e	c #7F7F7F",
"f	c #4E4E4E",
"g	c #535353",
"h	c #EAEAEA",
"i	c #C0C0C0",
"j	c #CACACA",
"k	c #DCDCDC",
"l	c #FEFEFE",
"m	c #8F8F8F",
"n	c #9A9A9A",
"o	c #585858",
"p	c #F1F1F1",
"q	c #606060",
"r	c #6A6A6A",
"s	c #F5F5F5",
"t	c #E7E7E7",
"u	c #8A8A8A",
"v	c #D5D5D5",
"w	c #DEDEDE",
"x	c #7E7E7E",
"y	c #C1C1C1",
"z	c #AAAAAA",
"A	c #B7B7B7",
"B	c #B6B6B6",
"C	c #505050",
"D	c #E8E8E8",
"E	c #787878",
"F	c #868686",
"G	c #E2E2E2",
"H	c #E6E6E6",
"                            ",
"                            ",
"                            ",
"                            ",
"                            ",
"    .+@@@@#$     %@@@@@&    ",
"     *=@@@@-    ;=@@@@>,    ",
"      '@@@@@)  ,!@@@@~$     ",
"       {@@@@]^ /@@@@@(      ",
"       _:@@@@<[}@@@@|       ",
"        1@@@@@2@@@@34       ",
"         5@@@@@@@@67        ",
"         89@@@@@@@0         ",
"          a6@@@@@bc         ",
"          d@@@@@@~^         ",
"         e=@@@@@@@bf        ",
"        gh@@@@@@@@@i        ",
"        j@@@@6k@@@@lm       ",
"       n@@@@@&o3@@@@pq      ",
"      rs@@@@tf u6@@@@v      ",
"     cw@@@@=x   y@@@@@z     ",
"     A@@@@@B    CD@@@@#E    ",
"    F}@@@@Gc     x=@@@@HC   ",
"                            ",
"                            ",
"                            ",
"                            ",
"                            "};
