/* XPM */
static char * left_active_xpm[] = {
"8 28 2 1",
" 	c #fdfdfc",
".	c #484848",
"   ..   ",
"   ..   ",
"   ..   ",
"   ..   ",
"   ..   ",
"   ..   ",
"   ..   ",
"   ..   ",
"   ..   ",
"   ..   ",
"   ..   ",
"   ..   ",
"   ..   ",
"   ..   ",
"   ..   ",
"   ..   ",
"   ..   ",
"   ..   ",
"   ..   ",
"   ..   ",
"   ..   ",
"   ..   ",
"   ..   ",
"   ..   ",
"   ..   ",
"   ..   ",
"   ..   ",
"   ..   "};
