/* XPM */
static char * maximize_pressed_xpm[] = {
"28 28 2 1",
" 	c #a0a0a0",
".	c #FFFFFF",
"                            ",
"                            ",
"                            ",
"                            ",
"                            ",
"     ..................     ",
"     ..................     ",
"     ..................     ",
"     ..................     ",
"     ....          ....     ",
"     ....          ....     ",
"     ....          ....     ",
"     ....          ....     ",
"     ....          ....     ",
"     ....          ....     ",
"     ....          ....     ",
"     ....          ....     ",
"     ....          ....     ",
"     ....          ....     ",
"     ..................     ",
"     ..................     ",
"     ..................     ",
"     ..................     ",
"                            ",
"                            ",
"                            ",
"                            ",
"                            "};
