/* XPM */
static char * stick_toggled_inactive_xpm[] = {
"28 28 15 1",
" 	c #BFBFBF",
".	c #A0A0A0",
"+	c #797979",
"@	c #4D4D4D",
"#	c #1A1A1A",
"$	c #A7A7A7",
"%	c #6C6C6C",
"&	c #000000",
"*	c #9C9C9C",
"=	c #4B4B4B",
"-	c #BCBCBC",
";	c #909090",
">	c #B4B4B4",
",	c #828282",
"'	c #373737",
"                            ",
"                            ",
"                            ",
"                            ",
"                            ",
"          .+@##@+.          ",
"        $%&&&&&&&&%$        ",
"       *=&&&&&&&&&&=*       ",
"      $=&&&&&&&&&&&&=$      ",
"      %&&&&+$--$+&&&&%      ",
"     .&&&&;      ;&&&&.     ",
"     +&&&+ >,'',> +&&&+     ",
"     @&&&$ ,&&&&, $&&&@     ",
"     #&&&- '&&&&' -&&&#     ",
"     #&&&- '&&&&' -&&&#     ",
"     @&&&$ ,&&&&, $&&&@     ",
"     +&&&+ >,'',> +&&&+     ",
"     .&&&&;      ;&&&&.     ",
"      %&&&&+$--$+&&&&%      ",
"      $=&&&&&&&&&&&&=$      ",
"       *=&&&&&&&&&&=*       ",
"        $%&&&&&&&&%$        ",
"          .+@##@+.          ",
"                            ",
"                            ",
"                            ",
"                            ",
"                            "};
