/* XPM */
static char * stick_toggled_active_xpm[] = {
"28 28 15 1",
" 	c #484848",
".	c #A3A3A3",
"+	c #D4D4D4",
"@	c #F0F0F0",
"#	c #FDFDFD",
"$	c #969696",
"%	c #DEDEDE",
"&	c #FFFFFF",
"*	c #ABABAB",
"=	c #979797",
"-	c #5A5A5A",
";	c #BBBBBB",
">	c #757575",
",	c #CBCBCB",
"'	c #F7F7F7",
"                            ",
"                            ",
"                            ",
"                            ",
"                            ",
"          .+@##@+.          ",
"        $%&&&&&&&&%$        ",
"       *@&&&&&&&&&&@*       ",
"      $@&&&&&&&&&&&&@$      ",
"      %&&&&+=--=+&&&&%      ",
"     .&&&&;      ;&&&&.     ",
"     +&&&+ >,'',> +&&&+     ",
"     @&&&= ,&&&&, =&&&@     ",
"     #&&&- '&&&&' -&&&#     ",
"     #&&&- '&&&&' -&&&#     ",
"     @&&&= ,&&&&, =&&&@     ",
"     +&&&+ >,'',> +&&&+     ",
"     .&&&&;      ;&&&&.     ",
"      %&&&&+=--=+&&&&%      ",
"      $@&&&&&&&&&&&&@$      ",
"       *@&&&&&&&&&&@*       ",
"        $%&&&&&&&&%$        ",
"          .+@##@+.          ",
"                            ",
"                            ",
"                            ",
"                            ",
"                            "};
