/* XPM */
static char * title_5_inactive_xpm[] = {
"8 28 2 1",
" 	c #fdfdfc",
".	c #BFBFBF",
"        ",
"        ",
"        ",
"        ",
"        ",
"        ",
"        ",
"        ",
"        ",
"        ",
"        ",
"        ",
"        ",
"        ",
"        ",
"        ",
"        ",
"        ",
"        ",
"        ",
"        ",
"        ",
"        ",
"        ",
"        ",
"        ",
"........",
"........"};
