/* XPM */
static char * bottom_right_inactive_xpm[] = {
"28 28 2 1",
" 	c #fdfdfc",
".	c #BFBFBF",
"                       ..   ",
"                       ..   ",
"                       ..   ",
"                       ..   ",
"                       ..   ",
"                       ..   ",
"                       ..   ",
"                       ..   ",
"                       ..   ",
"                       ..   ",
"                       ..   ",
"                       ..   ",
"                       ..   ",
"                       ..   ",
"                       ..   ",
"                       ..   ",
"                       ..   ",
"                       ..   ",
"                       ..   ",
"                       ..   ",
"                       ..   ",
"                       ..   ",
"                       ..   ",
".........................   ",
".........................   ",
"                            ",
"                            ",
"                            "};
