/* XPM */
static char * close_prelight_xpm[] = {
"28 28 74 1",
" 	c #DC143C",
".	c #DD344C",
"+	c #F9EAEB",
"@	c #FFFFFF",
"#	c #FDF8F9",
"$	c #E0606C",
"%	c #ECAFB3",
"&	c #EEB9BC",
"*	c #E2737C",
"=	c #FEFBFB",
"-	c #F6DDDE",
";	c #E16B76",
">	c #F7E1E2",
",	c #DC2041",
"'	c #EBADB1",
")	c #EBAAAE",
"!	c #F7E3E4",
"~	c #FDF7F8",
"{	c #F5D9DA",
"]	c #FDF9F9",
"^	c #E0636F",
"/	c #EDB6B9",
"(	c #E89BA0",
"_	c #DF5060",
":	c #FCF3F4",
"<	c #F6DFE0",
"[	c #E3757E",
"}	c #FEFCFC",
"|	c #F2CCCF",
"1	c #E68D94",
"2	c #FDF7F7",
"3	c #FAEDED",
"4	c #DE3D51",
"5	c #F0C3C6",
"6	c #E37A82",
"7	c #DD2D48",
"8	c #F9E7E8",
"9	c #ECB2B6",
"0	c #E26E78",
"a	c #FEFDFD",
"b	c #F7E2E3",
"c	c #DC1B3E",
"d	c #EBAAAF",
"e	c #FDF8F8",
"f	c #E2707A",
"g	c #DC2543",
"h	c #DD314A",
"i	c #F9E9EA",
"j	c #EEBBBE",
"k	c #F0C6C8",
"l	c #F5DADB",
"m	c #FFFEFE",
"n	c #E4848B",
"o	c #E69197",
"p	c #DD3A4F",
"q	c #FAEDEE",
"r	c #FBF0F1",
"s	c #DE4658",
"t	c #DF5664",
"u	c #FCF5F5",
"v	c #F8E6E7",
"w	c #E47E86",
"x	c #F3D2D4",
"y	c #F6DCDD",
"z	c #E26F79",
"A	c #EEBCBF",
"B	c #E9A3A8",
"C	c #ECB2B5",
"D	c #ECB0B4",
"E	c #DD2945",
"F	c #E16873",
"G	c #E37981",
"H	c #F7E0E1",
"I	c #F8E5E6",
"                            ",
"                            ",
"                            ",
"                            ",
"                            ",
"    .+@@@@#$     %@@@@@&    ",
"     *=@@@@-    ;=@@@@>,    ",
"      '@@@@@)  ,!@@@@~$     ",
"       {@@@@]^ /@@@@@(      ",
"       _:@@@@<[}@@@@|       ",
"        1@@@@@2@@@@34       ",
"         5@@@@@@@@}6        ",
"         78@@@@@@@9         ",
"          0a@@@@@bc         ",
"          d@@@@@@e^         ",
"         f=@@@@@@@bg        ",
"        hi@@@@@@@@@j        ",
"        k@@@@al@@@@mn       ",
"       o@@@@@&pq@@@@rs      ",
"      tu@@@@vg wa@@@@x      ",
"     cy@@@@=z   A@@@@@B     ",
"     C@@@@@D    Ev@@@@]F    ",
"    G}@@@@Hc     z=@@@@IE   ",
"                            ",
"                            ",
"                            ",
"                            ",
"                            "};
