/* XPM */
static char * close_pressed_xpm[] = {
"28 28 74 1",
" 	c #F1666D",
".	c #F16E74",
"+	c #FDEDED",
"@	c #FFFFFF",
"#	c #FEF9F9",
"$	c #F38388",
"%	c #F7BCBD",
"&	c #F8C4C5",
"*	c #F38F93",
"=	c #FFFCFC",
"-	c #FBE2E2",
";	c #F38A8E",
">	c #FEFBFB",
",	c #FCE5E6",
"'	c #F1686F",
")	c #F7BABC",
"!	c #F7B7BA",
"~	c #FCE7E8",
"{	c #FEF8F9",
"]	c #FBDEDF",
"^	c #FEFAFA",
"/	c #F3858A",
"(	c #F8C1C3",
"_	c #F6ACAE",
":	c #F27B80",
"<	c #FEF5F5",
"[	c #FBE4E4",
"}	c #F39195",
"|	c #FAD4D5",
"1	c #F5A2A5",
"2	c #FEF8F8",
"3	c #FDEFEF",
"4	c #F27278",
"5	c #F9CCCD",
"6	c #FFFDFD",
"7	c #F49498",
"8	c #F16C72",
"9	c #FCEAEB",
"0	c #F7BEC0",
"a	c #F38C90",
"b	c #FFFDFE",
"c	c #FCE6E7",
"d	c #F1676E",
"e	c #F7B8BA",
"f	c #F38E92",
"g	c #F16A70",
"h	c #F16D73",
"i	c #FCECEC",
"j	c #F8C5C7",
"k	c #F9CED0",
"l	c #FBDFE0",
"m	c #FFFEFE",
"n	c #F49B9E",
"o	c #F5A5A7",
"p	c #F27077",
"q	c #FDF0F0",
"r	c #FDF2F2",
"s	c #F2767B",
"t	c #F27E83",
"u	c #FEF6F6",
"v	c #FCE9EA",
"w	c #F4979B",
"x	c #FAD9DA",
"y	c #FBE1E2",
"z	c #F38D91",
"A	c #F8C6C8",
"B	c #F6B2B4",
"C	c #F7BDBF",
"D	c #F16B71",
"E	c #FCEAEA",
"F	c #F3898D",
"G	c #F49397",
"H	c #FCE4E5",
"I	c #FCE8E9",
"                            ",
"                            ",
"                            ",
"                            ",
"                            ",
"    .+@@@@#$     %@@@@@&    ",
"     *=@@@@-    ;>@@@@,'    ",
"      )@@@@@!  '~@@@@{$     ",
"       ]@@@@^/ (@@@@@_      ",
"       :<@@@@[}=@@@@|       ",
"        1@@@@@2@@@@34       ",
"         5@@@@@@@@67        ",
"         89@@@@@@@0         ",
"          ab@@@@@cd         ",
"          e@@@@@@#/         ",
"         f>@@@@@@@cg        ",
"        hi@@@@@@@@@j        ",
"        k@@@@6l@@@@mn       ",
"       o@@@@@&pq@@@@rs      ",
"      tu@@@@vg wb@@@@x      ",
"     dy@@@@=z   A@@@@@B     ",
"     0@@@@@C    DE@@@@^F    ",
"    G=@@@@Hd     z>@@@@ID   ",
"                            ",
"                            ",
"                            ",
"                            ",
"                            "};
