/* XPM */
static char * maximize_prelight_xpm[] = {
"28 28 2 1",
" 	c #a170c4",
".	c #FFFFFF",
"                            ",
"                            ",
"                            ",
"                            ",
"                            ",
"     ..................     ",
"     ..................     ",
"     ..................     ",
"     ..................     ",
"     ....          ....     ",
"     ....          ....     ",
"     ....          ....     ",
"     ....          ....     ",
"     ....          ....     ",
"     ....          ....     ",
"     ....          ....     ",
"     ....          ....     ",
"     ....          ....     ",
"     ....          ....     ",
"     ..................     ",
"     ..................     ",
"     ..................     ",
"     ..................     ",
"                            ",
"                            ",
"                            ",
"                            ",
"                            "};
