/* XPM */
static char * stick_active_xpm[] = {
"28 28 14 1",
" 	c #845CA0",
".	c #B8A9C5",
"+	c #DDD6E2",
"@	c #F2F0F4",
"#	c #FDFDFE",
"$	c #AF9CBE",
"%	c #E5E0E9",
"&	c #FFFFFF",
"*	c #BDB0CA",
"=	c #F3F1F5",
"-	c #DCD6E2",
";	c #B09EBF",
">	c #8C69A5",
",	c #C9BFD3",
"                            ",
"                            ",
"                            ",
"                            ",
"                            ",
"          .+@##@+.          ",
"        $%&&&&&&&&%$        ",
"       *=&&&&&&&&&&=*       ",
"      $=&&&&&&&&&&&&=$      ",
"      %&&&&-;>>;-&&&&%      ",
"     .&&&&,      ,&&&&.     ",
"     +&&&-        -&&&+     ",
"     @&&&;        ;&&&@     ",
"     #&&&>        >&&&#     ",
"     #&&&>        >&&&#     ",
"     @&&&;        ;&&&@     ",
"     +&&&-        -&&&+     ",
"     .&&&&,      ,&&&&.     ",
"      %&&&&-;>>;-&&&&%      ",
"      $=&&&&&&&&&&&&=$      ",
"       *=&&&&&&&&&&=*       ",
"        $%&&&&&&&&%$        ",
"          .+@##@+.          ",
"                            ",
"                            ",
"                            ",
"                            ",
"                            "};
