/* XPM */
static char * title_1_active_xpm[] = {
"8 28 2 1",
" 	c #fdfdfc",
".	c #845ca0",
"        ",
"        ",
"        ",
"        ",
"        ",
"        ",
"        ",
"        ",
"        ",
"        ",
"        ",
"        ",
"        ",
"        ",
"        ",
"        ",
"        ",
"        ",
"        ",
"        ",
"        ",
"        ",
"        ",
"        ",
"        ",
"        ",
"........",
"........"};
