/* XPM */
static char * top_right_active_xpm[] = {
"8 56 2 1",
" 	c #845ca0",
".	c #fdfdfc",
"     ...",
"     ...",
"     ...",
"     ...",
"     ...",
"     ...",
"     ...",
"     ...",
"     ...",
"     ...",
"     ...",
"     ...",
"     ...",
"     ...",
"     ...",
"     ...",
"     ...",
"     ...",
"     ...",
"     ...",
"     ...",
"     ...",
"     ...",
"     ...",
"     ...",
"     ...",
"     ...",
"     ...",
"...  ...",
"...  ...",
"...  ...",
"...  ...",
"...  ...",
"...  ...",
"...  ...",
"...  ...",
"...  ...",
"...  ...",
"...  ...",
"...  ...",
"...  ...",
"...  ...",
"...  ...",
"...  ...",
"...  ...",
"...  ...",
"...  ...",
"...  ...",
"...  ...",
"...  ...",
"...  ...",
"...  ...",
"...  ...",
"...  ...",
"...  ...",
"...  ..."};
