/* XPM */
static char * close_active_xpm[] = {
"28 28 70 1",
" 	c #845CA0",
".	c #825B9E",
"+	c #3A2647",
"@	c #000000",
"#	c #1F1327",
"$	c #7D5798",
"%	c #66467C",
"&	c #614376",
"*	c #795493",
"=	c #160C1D",
"-	c #483058",
";	c #7B5595",
">	c #180D1F",
",	c #442D53",
"'	c #845C9F",
")	c #67477D",
"!	c #68487F",
"~	c #412C51",
"{	c #21142A",
"]	c #4C335D",
"^	c #1C1124",
"/	c #7D5797",
"(	c #634478",
"_	c #6E4C86",
":	c #7F599A",
"<	c #2A1B35",
"[	c #462F56",
"}	c #130A19",
"|	c #553A68",
"1	c #734F8B",
"2	c #030105",
"3	c #22152C",
"4	c #352342",
"5	c #825A9D",
"6	c #5C3F70",
"7	c #110816",
"8	c #785392",
"9	c #835B9F",
"0	c #3D284B",
"a	c #64457A",
"b	c #0C0611",
"c	c #422C52",
"d	c #201329",
"e	c #7A5594",
"f	c #835B9E",
"g	c #3B2749",
"h	c #604275",
"i	c #5A3D6D",
"j	c #0E0714",
"k	c #4B325C",
"l	c #09040D",
"m	c #75518F",
"n	c #714F8A",
"o	c #352242",
"p	c #301F3C",
"q	c #815A9C",
"r	c #7F589A",
"s	c #281932",
"t	c #3E2A4D",
"u	c #775290",
"v	c #513763",
"w	c #493159",
"x	c #6B4A82",
"y	c #65457B",
"z	c #65467C",
"A	c #3E294C",
"B	c #1E1226",
"C	c #7C5696",
"D	c #452E54",
"E	c #402A4F",
"                            ",
"                            ",
"                            ",
"                            ",
"                            ",
"    .+@@@@#$     %@@@@@&    ",
"     *=@@@@-    ;>@@@@,'    ",
"      )@@@@@!  '~@@@@{$     ",
"       ]@@@@^/ (@@@@@_      ",
"       :<@@@@[*}@@@@|       ",
"        12@@@@3@@@@45       ",
"         6@@@@@@@@78        ",
"         90@@@@@@@a         ",
"          ;b@@@@@c          ",
"          !@@@@@@d/         ",
"         e>@@@@@@@c9        ",
"        fg@@@@@@@@@h        ",
"        i@@@@jk@@@@lm       ",
"       n2@@@@&5o@@@@pq      ",
"      rs@@@@t9 ub@@@@v      ",
"      w@@@@=e   h@@@@@x     ",
"     y@@@@@z    9A@@@@BC    ",
"    8}@@@@D      e>@@@@E9   ",
"                            ",
"                            ",
"                            ",
"                            ",
"                            "};
