/* XPM */
static char * close_pressed_xpm[] = {
"28 28 72 1",
" 	c #610000",
".	c #6A2E2E",
"+	c #ECEAEA",
"@	c #FFFFFF",
"#	c #F9F8F8",
"$	c #805D5D",
"%	c #BAAEAE",
"&	c #C3B9B9",
"*	c #8D7171",
"=	c #FBFBFB",
"-	c #E1DDDD",
";	c #876969",
">	c #E5E1E1",
",	c #641616",
"'	c #B8ACAC",
")	c #B6A9A9",
"!	c #E7E3E3",
"~	c #F8F7F7",
"{	c #DED8D8",
"]	c #FAF9F9",
"^	c #826060",
"/	c #C0B5B5",
"(	c #AA9A9A",
"_	c #774D4D",
":	c #F5F3F3",
"<	c #E3DFDF",
"[	c #8E7373",
"}	c #FCFCFC",
"|	c #D3CCCC",
"1	c #A08C8C",
"2	c #EFEDED",
"3	c #6D3838",
"4	c #CBC2C2",
"5	c #FDFCFC",
"6	c #917878",
"7	c #672626",
"8	c #EAE7E7",
"9	c #BDB2B2",
"0	c #896C6C",
"a	c #FDFDFD",
"b	c #E6E2E2",
"c	c #620D0D",
"d	c #B7AAAA",
"e	c #8B6E6E",
"f	c #651C1C",
"g	c #692A2A",
"h	c #EBE9E9",
"i	c #C4BBBB",
"j	c #CDC5C5",
"k	c #DEDADA",
"l	c #FEFEFE",
"m	c #998282",
"n	c #A39090",
"o	c #6C3535",
"p	c #F2F0F0",
"q	c #724242",
"r	c #7A5353",
"s	c #F6F5F5",
"t	c #E9E6E6",
"u	c #957D7D",
"v	c #D8D2D2",
"w	c #E0DCDC",
"x	c #8A6D6D",
"y	c #C5BBBB",
"z	c #B1A2A2",
"A	c #BDB1B1",
"B	c #BBAFAF",
"C	c #662222",
"D	c #866666",
"E	c #917777",
"F	c #E4E0E0",
"G	c #E8E5E5",
"                            ",
"                            ",
"                            ",
"                            ",
"                            ",
"    .+@@@@#$     %@@@@@&    ",
"     *=@@@@-    ;=@@@@>,    ",
"      '@@@@@)  ,!@@@@~$     ",
"       {@@@@]^ /@@@@@(      ",
"       _:@@@@<[}@@@@|       ",
"        1@@@@@~@@@@23       ",
"         4@@@@@@@@56        ",
"         78@@@@@@@9         ",
"          0a@@@@@bc         ",
"          d@@@@@@#^         ",
"         e=@@@@@@@bf        ",
"        gh@@@@@@@@@i        ",
"        j@@@@ak@@@@lm       ",
"       n@@@@@&o2@@@@pq      ",
"      rs@@@@tf ua@@@@v      ",
"     cw@@@@=x   y@@@@@z     ",
"     A@@@@@B    Ct@@@@]D    ",
"    E}@@@@Fc     x=@@@@GC   ",
"                            ",
"                            ",
"                            ",
"                            ",
"                            "};
