/* XPM */
static char * hide_pressed_xpm[] = {
"28 28 2 1",
" 	c #3b2948",
".	c #FFFFFF",
"                            ",
"                            ",
"                            ",
"                            ",
"                            ",
"                            ",
"                            ",
"                            ",
"                            ",
"                            ",
"                            ",
"                            ",
"                            ",
"                            ",
"                            ",
"                            ",
"                            ",
"                            ",
"                            ",
"     ..................     ",
"     ..................     ",
"     ..................     ",
"     ..................     ",
"                            ",
"                            ",
"                            ",
"                            ",
"                            "};
