/* XPM */
static char * hide_inactive_xpm[] = {
"28 28 2 1",
" 	c #BFBFBF",
".	c #000000",
"                            ",
"                            ",
"                            ",
"                            ",
"                            ",
"                            ",
"                            ",
"                            ",
"                            ",
"                            ",
"                            ",
"                            ",
"                            ",
"                            ",
"                            ",
"                            ",
"                            ",
"                            ",
"                            ",
"     ..................     ",
"     ..................     ",
"     ..................     ",
"     ..................     ",
"                            ",
"                            ",
"                            ",
"                            ",
"                            "};
