/* XPM */
static char * maximize_active_xpm[] = {
"28 28 2 1",
" 	c #845ca0",
".	c #000000",
"                            ",
"                            ",
"                            ",
"                            ",
"                            ",
"     ..................     ",
"     ..................     ",
"     ..................     ",
"     ..................     ",
"     ....          ....     ",
"     ....          ....     ",
"     ....          ....     ",
"     ....          ....     ",
"     ....          ....     ",
"     ....          ....     ",
"     ....          ....     ",
"     ....          ....     ",
"     ....          ....     ",
"     ....          ....     ",
"     ..................     ",
"     ..................     ",
"     ..................     ",
"     ..................     ",
"                            ",
"                            ",
"                            ",
"                            ",
"                            "};
