/* XPM */
static char * shade_toggled_prelight_xpm[] = {
"28 28 3 1",
" 	c #563C68",
".	c #C3BFC7",
"+	c #FFFFFF",
"                            ",
"                            ",
"                            ",
"                            ",
"                            ",
"                            ",
"                            ",
"                            ",
"                            ",
"    .++++.         .++++.   ",
"     .++++.       .++++.    ",
"      .++++.     .++++.     ",
"       .++++.   .++++.      ",
"        .++++. .++++.       ",
"         .++++.++++.        ",
"          .+++++++.         ",
"           .+++++.          ",
"            .+++.           ",
"             .+.            ",
"                            ",
"                            ",
"                            ",
"                            ",
"                            ",
"                            ",
"                            ",
"                            ",
"                            "};
