/* XPM */
static char * title_5_inactive_xpm[] = {
"8 28 2 1",
" 	c #353535",
".	c #BFBFBF",
"        ",
"        ",
"        ",
"        ",
"        ",
"        ",
"        ",
"        ",
"        ",
"        ",
"        ",
"        ",
"        ",
"        ",
"        ",
"        ",
"        ",
"        ",
"        ",
"        ",
"        ",
"        ",
"        ",
"        ",
"        ",
"        ",
"........",
"........"};
