/* XPM */
static char * top_right_inactive_xpm[] = {
"8 56 2 1",
" 	c #BFBFBF",
".	c #353535",
"     ...",
"     ...",
"     ...",
"     ...",
"     ...",
"     ...",
"     ...",
"     ...",
"     ...",
"     ...",
"     ...",
"     ...",
"     ...",
"     ...",
"     ...",
"     ...",
"     ...",
"     ...",
"     ...",
"     ...",
"     ...",
"     ...",
"     ...",
"     ...",
"     ...",
"     ...",
"     ...",
"     ...",
"...  ...",
"...  ...",
"...  ...",
"...  ...",
"...  ...",
"...  ...",
"...  ...",
"...  ...",
"...  ...",
"...  ...",
"...  ...",
"...  ...",
"...  ...",
"...  ...",
"...  ...",
"...  ...",
"...  ...",
"...  ...",
"...  ...",
"...  ...",
"...  ...",
"...  ...",
"...  ...",
"...  ...",
"...  ...",
"...  ...",
"...  ...",
"...  ..."};
