/* XPM */
static char * top_left_active_xpm[] = {
"8 56 2 1",
" 	c #353535",
".	c #845ca0",
"   .....",
"   .....",
"   .....",
"   .....",
"   .....",
"   .....",
"   .....",
"   .....",
"   .....",
"   .....",
"   .....",
"   .....",
"   .....",
"   .....",
"   .....",
"   .....",
"   .....",
"   .....",
"   .....",
"   .....",
"   .....",
"   .....",
"   .....",
"   .....",
"   .....",
"   .....",
"   .....",
"   .....",
"   ..   ",
"   ..   ",
"   ..   ",
"   ..   ",
"   ..   ",
"   ..   ",
"   ..   ",
"   ..   ",
"   ..   ",
"   ..   ",
"   ..   ",
"   ..   ",
"   ..   ",
"   ..   ",
"   ..   ",
"   ..   ",
"   ..   ",
"   ..   ",
"   ..   ",
"   ..   ",
"   ..   ",
"   ..   ",
"   ..   ",
"   ..   ",
"   ..   ",
"   ..   ",
"   ..   ",
"   ..   "};
