/* XPM */
static char * top_left_inactive_xpm[] = {
"8 56 2 1",
" 	c #353535",
".	c #BFBFBF",
"   .....",
"   .....",
"   .....",
"   .....",
"   .....",
"   .....",
"   .....",
"   .....",
"   .....",
"   .....",
"   .....",
"   .....",
"   .....",
"   .....",
"   .....",
"   .....",
"   .....",
"   .....",
"   .....",
"   .....",
"   .....",
"   .....",
"   .....",
"   .....",
"   .....",
"   .....",
"   .....",
"   .....",
"   ..   ",
"   ..   ",
"   ..   ",
"   ..   ",
"   ..   ",
"   ..   ",
"   ..   ",
"   ..   ",
"   ..   ",
"   ..   ",
"   ..   ",
"   ..   ",
"   ..   ",
"   ..   ",
"   ..   ",
"   ..   ",
"   ..   ",
"   ..   ",
"   ..   ",
"   ..   ",
"   ..   ",
"   ..   ",
"   ..   ",
"   ..   ",
"   ..   ",
"   ..   ",
"   ..   ",
"   ..   "};
